<svg xmlns="http://www.w3.org/2000/svg" xmlns:xlink="http://www.w3.org/1999/xlink" width="405.287" height="311.635" viewBox="0 0 405.287 311.635">
  <defs>
    <clipPath id="clip-path">
      <rect id="사각형_650" data-name="사각형 650" width="249.773" height="125.757" fill="#fffffe"/>
    </clipPath>
  </defs>
  <g id="campaign_center" transform="matrix(0.966, -0.259, 0.259, 0.966, -1487.53, -2414.563)">
    <g id="중앙" transform="translate(787.867 2807.016)">
      <path id="패스_21" data-name="패스 21" d="M347.56,127.4a20.975,20.975,0,0,1,0-28.337c7.333-8,11.343-16.669,11.343-25.717C358.9,32.838,278.56,0,179.452,0S0,32.838,0,73.344c0,9.049,4.01,17.714,11.343,25.717a20.975,20.975,0,0,1,0,28.337C4.01,135.4,0,144.067,0,153.117c0,40.507,80.343,73.344,179.452,73.344S358.9,193.623,358.9,153.117C358.9,144.067,354.893,135.4,347.56,127.4Z" transform="translate(0)" fill="#2f4a9c"/>
    </g>
    <g id="그룹_785" data-name="그룹 785" transform="translate(842.433 2857.368)">
      <g id="그룹_784" data-name="그룹 784" clip-path="url(#clip-path)">
        <path id="패스_1069" data-name="패스 1069" d="M15.422,5.969c-5.125,0-8.482,3.9-8.482,10.725,0,7,3.4,10.726,8.437,10.726,3.765,0,6.532-2.065,7.212-5.566l6.895.046c-.771,6.012-5.851,11.487-14.2,11.487C6.486,33.388,0,27.284,0,16.694S6.622,0,15.286,0c7.574,0,13.29,4.308,14.2,11.757H22.589c-.544-3.589-3.357-5.788-7.167-5.788" fill="#fffffe"/>
        <path id="패스_1070" data-name="패스 1070" d="M29.228,19.854c0-7.538,4.627-12.565,12.065-12.565S53.4,12.316,53.4,19.854s-4.672,12.61-12.112,12.61-12.065-5.071-12.065-12.61m17.327,0c0-4.308-1.77-7.494-5.216-7.494-3.493,0-5.308,3.186-5.308,7.494,0,4.264,1.815,7.45,5.308,7.45,3.446,0,5.216-3.186,5.216-7.45" transform="translate(3.884 0.969)" fill="#fffffe"/>
        <rect id="사각형_648" data-name="사각형 648" width="6.713" height="32.49" transform="translate(61.508 0.449)" fill="#fffffe"/>
        <rect id="사각형_649" data-name="사각형 649" width="6.713" height="32.49" transform="translate(73.437 0.449)" fill="#fffffe"/>
        <path id="패스_1071" data-name="패스 1071" d="M83.475,17.656c1.77-.113,5.081-.27,6.123-.315V15.366c-.045-2.019-1.451-3.231-3.946-3.231-2.268,0-3.719,1.032-4.082,2.693h-6.4c.408-4.219,4.128-7.539,10.659-7.539,5.353,0,10.433,2.378,10.433,8.256V31.971h-6.35V28.605h-.181C88.51,30.848,86.2,32.42,82.522,32.42c-4.717,0-8.21-2.424-8.21-7.271,0-5.43,4.445-7.224,9.163-7.493m.953,10.186c3.04,0,5.216-2.019,5.17-4.577v-1.8c-1.02.045-3.878.2-5.035.314-2.313.225-3.81,1.3-3.81,3.187s1.542,2.872,3.674,2.872" transform="translate(9.875 0.969)" fill="#fffffe"/>
        <path id="패스_1072" data-name="패스 1072" d="M98.336.4h6.713V12.6h.181a7.331,7.331,0,0,1,7.031-4.4c5.444,0,10.024,4.174,10.024,12.521,0,8.122-4.4,12.565-10.024,12.565a7.309,7.309,0,0,1-7.031-4.308h-.272v3.9H98.336ZM110.129,28c3.447,0,5.262-3.007,5.262-7.315,0-4.263-1.815-7.18-5.262-7.18-3.357,0-5.216,2.782-5.216,7.18S106.818,28,110.129,28" transform="translate(13.067 0.053)" fill="#fffffe"/>
        <path id="패스_1073" data-name="패스 1073" d="M122.4,19.854c0-7.538,4.627-12.565,12.065-12.565s12.112,5.027,12.112,12.565-4.672,12.61-12.112,12.61S122.4,27.393,122.4,19.854m17.327,0c0-4.308-1.77-7.494-5.216-7.494-3.493,0-5.308,3.186-5.308,7.494,0,4.264,1.815,7.45,5.308,7.45,3.446,0,5.216-3.186,5.216-7.45" transform="translate(16.265 0.969)" fill="#fffffe"/>
        <path id="패스_1074" data-name="패스 1074" d="M147.464,7.608h6.487v4.219h.272a5.985,5.985,0,0,1,5.942-4.577,10.609,10.609,0,0,1,2.132.224V13.4a12.783,12.783,0,0,0-2.858-.357,4.991,4.991,0,0,0-5.261,5.071V31.976h-6.713Z" transform="translate(19.596 0.963)" fill="#fffffe"/>
        <path id="패스_1075" data-name="패스 1075" d="M170.961,17.656c1.77-.113,5.081-.27,6.123-.315V15.366c-.045-2.019-1.451-3.231-3.946-3.231-2.268,0-3.719,1.032-4.082,2.693h-6.4c.408-4.219,4.128-7.539,10.659-7.539,5.353,0,10.433,2.378,10.433,8.256V31.971H177.4V28.605h-.181c-1.225,2.243-3.538,3.814-7.213,3.814-4.717,0-8.21-2.424-8.21-7.271,0-5.43,4.445-7.224,9.163-7.493m.953,10.186c3.04,0,5.216-2.019,5.17-4.577v-1.8c-1.02.045-3.878.2-5.035.314-2.313.225-3.81,1.3-3.81,3.187s1.542,2.872,3.674,2.872" transform="translate(21.5 0.969)" fill="#fffffe"/>
        <path id="패스_1076" data-name="패스 1076" d="M198.881,13.232h-4.627V25.124c0,1.929.953,2.423,2.313,2.469.681,0,1.86-.045,2.676-.135v5.25a21.157,21.157,0,0,1-3.583.225c-4.853,0-8.165-2.155-8.119-6.866V13.232h-3.4V8.251h3.4V2.416h6.713V8.251h4.627Z" transform="translate(24.469 0.321)" fill="#fffffe"/>
        <path id="패스_1077" data-name="패스 1077" d="M199.775,19.9c0-7.539,4.672-12.61,11.885-12.61,6.486,0,11.566,4.038,11.566,12.341v1.885H206.4c0,3.68,2.223,5.968,5.67,5.968,2.268,0,3.9-.988,4.581-2.469h6.4c-.953,4.487-5.035,7.45-11.112,7.45-7.53,0-12.157-4.848-12.157-12.565m17.1-2.558a4.869,4.869,0,0,0-5.08-5.072,5.246,5.246,0,0,0-5.4,5.072Z" transform="translate(26.547 0.969)" fill="#fffffe"/>
        <path id="패스_1078" data-name="패스 1078" d="M84.226,58.4c1.77-.113,5.081-.27,6.123-.315V56.113C90.3,54.095,88.9,52.882,86.4,52.882c-2.268,0-3.719,1.032-4.082,2.693h-6.4c.408-4.219,4.128-7.539,10.659-7.539,5.353,0,10.433,2.378,10.433,8.258V72.719h-6.35V69.353h-.181c-1.225,2.243-3.538,3.814-7.213,3.814-4.717,0-8.21-2.424-8.21-7.27,0-5.431,4.445-7.227,9.163-7.5m.953,10.187c3.04,0,5.216-2.019,5.17-4.577v-1.8c-1.02.045-3.878.2-5.035.314-2.313.225-3.81,1.3-3.81,3.187s1.542,2.872,3.674,2.872" transform="translate(9.975 6.383)" fill="#fffffe"/>
        <path id="패스_1079" data-name="패스 1079" d="M105.679,72.718H98.966V48.35h6.4v4.263h.272c1.134-2.827,3.765-4.577,7.393-4.577,5.126,0,8.528,3.455,8.483,9.154V72.718h-6.668V58.357c0-3.007-1.679-4.8-4.445-4.8-2.812,0-4.717,1.84-4.717,5.071Z" transform="translate(13.151 6.383)" fill="#fffffe"/>
        <path id="패스_1080" data-name="패스 1080" d="M122.629,61.474c0-8.348,4.581-12.522,10.025-12.522a7.214,7.214,0,0,1,6.985,4.4h.227V41.144h6.713v32.49h-6.623v-3.9h-.317a7.288,7.288,0,0,1-6.985,4.308c-5.625,0-10.025-4.443-10.025-12.565M140,61.428c0-4.4-1.906-7.181-5.262-7.181-3.4,0-5.216,2.917-5.216,7.181,0,4.308,1.815,7.315,5.216,7.315,3.357,0,5.262-2.917,5.262-7.315" transform="translate(16.296 5.467)" fill="#fffffe"/>
        <path id="패스_1081" data-name="패스 1081" d="M34.03,87.464c-5.125,0-8.482,3.9-8.482,10.725,0,7,3.4,10.726,8.437,10.726,3.765,0,6.532-2.065,7.212-5.566l6.895.046c-.771,6.012-5.851,11.487-14.2,11.487-8.8,0-15.286-6.1-15.286-16.694S25.23,81.5,33.894,81.5c7.574,0,13.29,4.308,14.2,11.757H41.2c-.544-3.589-3.357-5.788-7.167-5.788" transform="translate(2.473 10.829)" fill="#fffffe"/>
        <path id="패스_1082" data-name="패스 1082" d="M47.836,101.349c0-7.538,4.627-12.565,12.065-12.565s12.112,5.027,12.112,12.565-4.672,12.61-12.112,12.61-12.065-5.071-12.065-12.61m17.327,0c0-4.308-1.77-7.494-5.216-7.494-3.493,0-5.308,3.186-5.308,7.494,0,4.264,1.815,7.45,5.308,7.45,3.446,0,5.216-3.186,5.216-7.45" transform="translate(6.357 11.798)" fill="#fffffe"/>
        <path id="패스_1083" data-name="패스 1083" d="M79.614,113.465H72.9V89.1h6.4v4.263h.272c1.134-2.827,3.765-4.577,7.393-4.577,5.126,0,8.528,3.455,8.483,9.154v15.527H88.777V99.1c0-3.007-1.679-4.8-4.445-4.8-2.812,0-4.717,1.84-4.717,5.071Z" transform="translate(9.687 11.798)" fill="#fffffe"/>
        <path id="패스_1084" data-name="패스 1084" d="M107.562,93.5c-2.177,0-3.855,1.032-3.81,2.513-.045,1.077.861,1.929,3.174,2.423l4.4.9c4.763.988,7.076,3.1,7.121,6.6-.045,4.8-4.4,8.031-10.931,8.031-6.668,0-10.569-2.961-11.114-7.718h6.759c.317,1.93,1.906,2.917,4.355,2.917s4.082-.987,4.082-2.558c0-1.256-1.042-2.019-3.356-2.513l-4.083-.808c-4.672-.9-7.121-3.32-7.076-6.911-.045-4.667,4.036-7.584,10.387-7.584,6.214,0,10.07,2.916,10.433,7.538H111.6c-.272-1.7-1.814-2.827-4.036-2.827" transform="translate(12.81 11.798)" fill="#fffffe"/>
        <path id="패스_1085" data-name="패스 1085" d="M118.625,101.394c0-7.539,4.672-12.61,11.885-12.61,6.486,0,11.566,4.038,11.566,12.341v1.885H125.248c0,3.68,2.223,5.968,5.67,5.968,2.268,0,3.9-.988,4.581-2.469h6.4c-.953,4.487-5.035,7.45-11.112,7.45-7.53,0-12.157-4.848-12.157-12.565m17.1-2.558a4.869,4.869,0,0,0-5.08-5.072,5.246,5.246,0,0,0-5.4,5.072Z" transform="translate(15.763 11.798)" fill="#fffffe"/>
        <path id="패스_1086" data-name="패스 1086" d="M143.049,89.1h6.487v4.218h.272a5.986,5.986,0,0,1,5.942-4.577,10.691,10.691,0,0,1,2.132.224v5.923a12.713,12.713,0,0,0-2.858-.358,4.991,4.991,0,0,0-5.261,5.071v13.867h-6.714Z" transform="translate(19.009 11.793)" fill="#fffffe"/>
        <path id="패스_1087" data-name="패스 1087" d="M174.132,113.429H166.6l-8.619-24.367h7.076l5.172,17.5h.272l5.17-17.5H182.8Z" transform="translate(20.994 11.835)" fill="#fffffe"/>
        <path id="패스_1088" data-name="패스 1088" d="M181.166,101.394c0-7.539,4.672-12.61,11.885-12.61,6.486,0,11.566,4.038,11.566,12.341v1.885H187.789c0,3.68,2.223,5.968,5.67,5.968,2.268,0,3.9-.988,4.581-2.469h6.4c-.953,4.487-5.035,7.45-11.112,7.45-7.53,0-12.157-4.848-12.157-12.565m17.1-2.558a4.869,4.869,0,0,0-5.08-5.072,5.246,5.246,0,0,0-5.4,5.072Z" transform="translate(24.074 11.798)" fill="#fffffe"/>
      </g>
    </g>
  </g>
</svg>
