<svg xmlns="http://www.w3.org/2000/svg" width="125" height="58.008" viewBox="0 0 125 58.008">
  <g id="header_logo" transform="translate(1176.107 -86.422)">
    <path id="패스_1068" data-name="패스 1068" d="M62.5,0C97.018,0,125,12.986,125,29s-27.982,29-62.5,29S0,45.023,0,29,27.982,0,62.5,0Z" transform="translate(-1176.107 86.422)" fill="#2f499c"/>
    <path id="패스_36" data-name="패스 36" d="M-1125.452,110.613a9.7,9.7,0,0,1,2.728.36,6.1,6.1,0,0,1,2.075,1.029,4.752,4.752,0,0,1,1.323,1.618,4.686,4.686,0,0,1,.474,2.123,2.977,2.977,0,0,1-.522,1.9,1.813,1.813,0,0,1-1.5.653,2.682,2.682,0,0,1-1.192-.262,7.744,7.744,0,0,1-1-.571q-.458-.31-.882-.571a1.654,1.654,0,0,0-.882-.262,1.875,1.875,0,0,0-1.176.474,5.2,5.2,0,0,0-1.078,1.226,7.286,7.286,0,0,0-.8,1.682,5.724,5.724,0,0,0-.31,1.814,2.664,2.664,0,0,0,.441,1.633,1.444,1.444,0,0,0,1.225.588,3.2,3.2,0,0,0,1.291-.294q.67-.294,1.438-.654t1.6-.653a5.209,5.209,0,0,1,1.748-.294,3.154,3.154,0,0,1,2.45.964,3.8,3.8,0,0,1,.882,2.663,6.943,6.943,0,0,1-.719,3.055,9.57,9.57,0,0,1-1.912,2.663,9.5,9.5,0,0,1-2.712,1.878,7.355,7.355,0,0,1-3.121.7,10.659,10.659,0,0,1-4.084-.7,6.152,6.152,0,0,1-2.761-2.237,10.631,10.631,0,0,1-1.552-3.97,30.414,30.414,0,0,1-.49-5.9,14.988,14.988,0,0,1,.621-4.493,9.542,9.542,0,0,1,1.781-3.35,7.585,7.585,0,0,1,2.826-2.091A9.5,9.5,0,0,1-1125.452,110.613Z" transform="translate(-13.197 -7.775)" fill="#fff"/>
    <path id="패스_37" data-name="패스 37" d="M-1087.6,110.613a9.7,9.7,0,0,1,2.728.36A6.092,6.092,0,0,1-1082.8,112a4.744,4.744,0,0,1,1.324,1.618,4.694,4.694,0,0,1,.474,2.123,2.978,2.978,0,0,1-.523,1.9,1.812,1.812,0,0,1-1.5.653,2.686,2.686,0,0,1-1.192-.262,7.76,7.76,0,0,1-1-.571q-.457-.31-.882-.571a1.652,1.652,0,0,0-.881-.262,1.879,1.879,0,0,0-1.177.474,5.221,5.221,0,0,0-1.078,1.226,7.3,7.3,0,0,0-.8,1.682,5.721,5.721,0,0,0-.31,1.814,2.669,2.669,0,0,0,.441,1.633,1.445,1.445,0,0,0,1.226.588,3.209,3.209,0,0,0,1.291-.294q.669-.294,1.437-.654t1.6-.653a5.213,5.213,0,0,1,1.748-.294,3.154,3.154,0,0,1,2.45.964,3.8,3.8,0,0,1,.882,2.663,6.942,6.942,0,0,1-.719,3.055,9.553,9.553,0,0,1-1.912,2.663,9.5,9.5,0,0,1-2.712,1.878,7.353,7.353,0,0,1-3.12.7,10.664,10.664,0,0,1-4.084-.7,6.146,6.146,0,0,1-2.76-2.237,10.606,10.606,0,0,1-1.552-3.97,30.361,30.361,0,0,1-.491-5.9,14.98,14.98,0,0,1,.621-4.493,9.566,9.566,0,0,1,1.781-3.35,7.591,7.591,0,0,1,2.826-2.091A9.5,9.5,0,0,1-1087.6,110.613Z" transform="translate(-25.193 -7.775)" fill="#fff"/>
    <path id="패스_38" data-name="패스 38" d="M-1051.126,110.613a9.7,9.7,0,0,1,2.728.36,6.1,6.1,0,0,1,2.075,1.029A4.751,4.751,0,0,1-1045,113.62a4.686,4.686,0,0,1,.474,2.123,2.977,2.977,0,0,1-.523,1.9,1.813,1.813,0,0,1-1.5.653,2.681,2.681,0,0,1-1.192-.262,7.754,7.754,0,0,1-1-.571q-.458-.31-.882-.571a1.654,1.654,0,0,0-.882-.262,1.876,1.876,0,0,0-1.176.474,5.2,5.2,0,0,0-1.078,1.226,7.276,7.276,0,0,0-.8,1.682,5.724,5.724,0,0,0-.31,1.814,2.665,2.665,0,0,0,.441,1.633,1.444,1.444,0,0,0,1.225.588,3.2,3.2,0,0,0,1.291-.294q.67-.294,1.438-.654t1.6-.653a5.209,5.209,0,0,1,1.748-.294,3.154,3.154,0,0,1,2.45.964,3.8,3.8,0,0,1,.882,2.663,6.943,6.943,0,0,1-.719,3.055,9.567,9.567,0,0,1-1.912,2.663,9.5,9.5,0,0,1-2.712,1.878,7.355,7.355,0,0,1-3.121.7,10.66,10.66,0,0,1-4.084-.7,6.152,6.152,0,0,1-2.761-2.237,10.631,10.631,0,0,1-1.552-3.97,30.424,30.424,0,0,1-.49-5.9,14.984,14.984,0,0,1,.621-4.493,9.544,9.544,0,0,1,1.781-3.35,7.584,7.584,0,0,1,2.826-2.091A9.5,9.5,0,0,1-1051.126,110.613Z" transform="translate(-36.754 -7.775)" fill="#fff"/>
  </g>
</svg>
