<svg id="footer_logo" xmlns="http://www.w3.org/2000/svg" width="115.352" height="53.254" viewBox="0 0 115.352 53.254">
  <ellipse id="타원_5" data-name="타원 5" cx="57.676" cy="26.627" rx="57.676" ry="26.627" fill="#2f499c"/>
  <path id="패스_36" data-name="패스 36" d="M-1126.191,110.613a8.9,8.9,0,0,1,2.5.33,5.6,5.6,0,0,1,1.905.945,4.366,4.366,0,0,1,1.215,1.485,4.3,4.3,0,0,1,.435,1.949,2.734,2.734,0,0,1-.48,1.74,1.665,1.665,0,0,1-1.38.6,2.461,2.461,0,0,1-1.094-.24,7.1,7.1,0,0,1-.915-.525q-.42-.285-.81-.525a1.52,1.52,0,0,0-.81-.24,1.722,1.722,0,0,0-1.08.435,4.783,4.783,0,0,0-.99,1.125,6.7,6.7,0,0,0-.735,1.544,5.255,5.255,0,0,0-.285,1.665,2.446,2.446,0,0,0,.4,1.5,1.326,1.326,0,0,0,1.125.54,2.941,2.941,0,0,0,1.185-.27q.615-.27,1.32-.6t1.47-.6a4.782,4.782,0,0,1,1.6-.27,2.9,2.9,0,0,1,2.25.885,3.484,3.484,0,0,1,.81,2.445,6.372,6.372,0,0,1-.66,2.8,8.781,8.781,0,0,1-1.755,2.445,8.721,8.721,0,0,1-2.489,1.724,6.752,6.752,0,0,1-2.865.645,9.786,9.786,0,0,1-3.749-.645,5.649,5.649,0,0,1-2.535-2.054,9.758,9.758,0,0,1-1.425-3.644,27.929,27.929,0,0,1-.45-5.414,13.764,13.764,0,0,1,.57-4.125,8.763,8.763,0,0,1,1.635-3.075,6.964,6.964,0,0,1,2.595-1.919A8.716,8.716,0,0,1-1126.191,110.613Z" transform="translate(1160.738 -95.542)" fill="#fff"/>
  <path id="패스_37" data-name="패스 37" d="M-1088.342,110.613a8.908,8.908,0,0,1,2.5.33,5.589,5.589,0,0,1,1.9.945,4.354,4.354,0,0,1,1.216,1.485,4.307,4.307,0,0,1,.435,1.949,2.734,2.734,0,0,1-.48,1.74,1.663,1.663,0,0,1-1.38.6,2.464,2.464,0,0,1-1.095-.24,7.107,7.107,0,0,1-.915-.525q-.419-.285-.81-.525a1.516,1.516,0,0,0-.809-.24,1.724,1.724,0,0,0-1.08.435,4.791,4.791,0,0,0-.99,1.125,6.7,6.7,0,0,0-.735,1.544,5.249,5.249,0,0,0-.285,1.665,2.451,2.451,0,0,0,.4,1.5,1.327,1.327,0,0,0,1.125.54,2.948,2.948,0,0,0,1.185-.27q.614-.27,1.319-.6t1.469-.6a4.783,4.783,0,0,1,1.6-.27,2.9,2.9,0,0,1,2.25.885,3.484,3.484,0,0,1,.81,2.445,6.372,6.372,0,0,1-.66,2.8,8.768,8.768,0,0,1-1.755,2.445,8.722,8.722,0,0,1-2.49,1.724,6.75,6.75,0,0,1-2.864.645,9.788,9.788,0,0,1-3.749-.645,5.643,5.643,0,0,1-2.534-2.054,9.742,9.742,0,0,1-1.425-3.644,27.856,27.856,0,0,1-.451-5.414,13.748,13.748,0,0,1,.57-4.125,8.782,8.782,0,0,1,1.634-3.075,6.97,6.97,0,0,1,2.595-1.919A8.721,8.721,0,0,1-1088.342,110.613Z" transform="translate(1146.766 -95.542)" fill="#fff"/>
  <path id="패스_38" data-name="패스 38" d="M-1051.865,110.613a8.906,8.906,0,0,1,2.5.33,5.6,5.6,0,0,1,1.9.945,4.359,4.359,0,0,1,1.215,1.485,4.3,4.3,0,0,1,.435,1.949,2.733,2.733,0,0,1-.48,1.74,1.664,1.664,0,0,1-1.38.6,2.46,2.46,0,0,1-1.094-.24,7.107,7.107,0,0,1-.915-.525q-.421-.285-.81-.525a1.519,1.519,0,0,0-.81-.24,1.722,1.722,0,0,0-1.08.435,4.769,4.769,0,0,0-.99,1.125,6.676,6.676,0,0,0-.735,1.544,5.259,5.259,0,0,0-.285,1.665,2.447,2.447,0,0,0,.405,1.5,1.326,1.326,0,0,0,1.125.54,2.939,2.939,0,0,0,1.185-.27q.615-.27,1.32-.6t1.47-.6a4.78,4.78,0,0,1,1.6-.27,2.9,2.9,0,0,1,2.25.885,3.484,3.484,0,0,1,.81,2.445,6.375,6.375,0,0,1-.66,2.8,8.787,8.787,0,0,1-1.755,2.445,8.724,8.724,0,0,1-2.489,1.724,6.752,6.752,0,0,1-2.865.645,9.785,9.785,0,0,1-3.749-.645,5.647,5.647,0,0,1-2.535-2.054,9.76,9.76,0,0,1-1.425-3.644,27.94,27.94,0,0,1-.45-5.414,13.76,13.76,0,0,1,.57-4.125,8.768,8.768,0,0,1,1.635-3.075,6.963,6.963,0,0,1,2.595-1.919A8.718,8.718,0,0,1-1051.865,110.613Z" transform="translate(1133.301 -95.542)" fill="#fff"/>
</svg>
