<svg xmlns="http://www.w3.org/2000/svg" width="67" height="30.932" viewBox="0 0 67 30.932">
  <g id="그룹_351" data-name="그룹 351" transform="translate(1176.107 -86.422)">
    <ellipse id="타원_5" data-name="타원 5" cx="33.5" cy="15.466" rx="33.5" ry="15.466" transform="translate(-1176.107 86.422)" fill="#063b8c"/>
    <path id="패스_36" data-name="패스 36" d="M-1129.615,110.613a5.222,5.222,0,0,1,1.469.194,3.286,3.286,0,0,1,1.118.554,2.562,2.562,0,0,1,.712.871,2.523,2.523,0,0,1,.255,1.143,1.6,1.6,0,0,1-.281,1.021.976.976,0,0,1-.809.352,1.445,1.445,0,0,1-.642-.141,4.171,4.171,0,0,1-.537-.308q-.247-.167-.475-.308a.891.891,0,0,0-.475-.141,1.011,1.011,0,0,0-.633.255,2.8,2.8,0,0,0-.58.66,3.919,3.919,0,0,0-.431.906,3.084,3.084,0,0,0-.167.977,1.435,1.435,0,0,0,.238.879.778.778,0,0,0,.66.317,1.724,1.724,0,0,0,.695-.158q.36-.158.774-.352t.862-.352a2.8,2.8,0,0,1,.941-.158,1.7,1.7,0,0,1,1.319.519,2.043,2.043,0,0,1,.475,1.434,3.738,3.738,0,0,1-.387,1.645,5.155,5.155,0,0,1-1.029,1.434,5.117,5.117,0,0,1-1.46,1.011,3.96,3.96,0,0,1-1.68.379,5.74,5.74,0,0,1-2.2-.379,3.313,3.313,0,0,1-1.487-1.2,5.72,5.72,0,0,1-.836-2.137,16.364,16.364,0,0,1-.264-3.176,8.071,8.071,0,0,1,.334-2.419,5.137,5.137,0,0,1,.959-1.8,4.084,4.084,0,0,1,1.522-1.126A5.113,5.113,0,0,1-1129.615,110.613Z" transform="translate(-26.404 -15.496)" fill="#fff"/>
    <path id="패스_37" data-name="패스 37" d="M-1091.765,110.613a5.224,5.224,0,0,1,1.469.194,3.276,3.276,0,0,1,1.117.554,2.555,2.555,0,0,1,.713.871,2.529,2.529,0,0,1,.255,1.143,1.605,1.605,0,0,1-.282,1.021.976.976,0,0,1-.809.352,1.445,1.445,0,0,1-.642-.141,4.176,4.176,0,0,1-.537-.308c-.164-.111-.323-.214-.475-.308a.89.89,0,0,0-.475-.141,1.011,1.011,0,0,0-.633.255,2.81,2.81,0,0,0-.581.66,3.924,3.924,0,0,0-.431.906,3.081,3.081,0,0,0-.167.977,1.437,1.437,0,0,0,.237.879.778.778,0,0,0,.66.317,1.728,1.728,0,0,0,.7-.158q.36-.158.774-.352t.862-.352a2.805,2.805,0,0,1,.941-.158,1.7,1.7,0,0,1,1.319.519,2.044,2.044,0,0,1,.475,1.434,3.738,3.738,0,0,1-.387,1.645,5.144,5.144,0,0,1-1.029,1.434,5.121,5.121,0,0,1-1.46,1.011,3.958,3.958,0,0,1-1.68.379,5.742,5.742,0,0,1-2.2-.379,3.308,3.308,0,0,1-1.486-1.2,5.709,5.709,0,0,1-.836-2.137,16.342,16.342,0,0,1-.264-3.176,8.059,8.059,0,0,1,.335-2.419,5.146,5.146,0,0,1,.958-1.8,4.089,4.089,0,0,1,1.522-1.126A5.114,5.114,0,0,1-1091.765,110.613Z" transform="translate(-50.406 -15.496)" fill="#fff"/>
    <path id="패스_38" data-name="패스 38" d="M-1055.288,110.613a5.224,5.224,0,0,1,1.469.194,3.283,3.283,0,0,1,1.117.554,2.557,2.557,0,0,1,.713.871,2.521,2.521,0,0,1,.255,1.143,1.6,1.6,0,0,1-.282,1.021.976.976,0,0,1-.809.352,1.442,1.442,0,0,1-.642-.141,4.183,4.183,0,0,1-.537-.308q-.246-.167-.475-.308a.89.89,0,0,0-.475-.141,1.009,1.009,0,0,0-.633.255,2.794,2.794,0,0,0-.581.66,3.919,3.919,0,0,0-.431.906,3.087,3.087,0,0,0-.167.977,1.434,1.434,0,0,0,.238.879.778.778,0,0,0,.659.317,1.724,1.724,0,0,0,.695-.158q.361-.158.774-.352t.862-.352a2.8,2.8,0,0,1,.941-.158,1.7,1.7,0,0,1,1.319.519,2.044,2.044,0,0,1,.475,1.434,3.739,3.739,0,0,1-.387,1.645,5.152,5.152,0,0,1-1.029,1.434,5.118,5.118,0,0,1-1.46,1.011,3.961,3.961,0,0,1-1.681.379,5.74,5.74,0,0,1-2.2-.379,3.311,3.311,0,0,1-1.487-1.2,5.726,5.726,0,0,1-.836-2.137,16.4,16.4,0,0,1-.264-3.176,8.067,8.067,0,0,1,.334-2.419,5.141,5.141,0,0,1,.959-1.8,4.084,4.084,0,0,1,1.522-1.126A5.112,5.112,0,0,1-1055.288,110.613Z" transform="translate(-73.538 -15.496)" fill="#fff"/>
  </g>
</svg>
