<svg xmlns="http://www.w3.org/2000/svg" width="27.438" height="16.008" viewBox="0 0 27.438 16.008">
  <g id="그룹_965" data-name="그룹 965" transform="translate(1175.107 -85.422)">
    <ellipse id="타원_5" data-name="타원 5" cx="13.719" cy="8.004" rx="13.719" ry="8.004" transform="translate(-1175.107 85.422)" fill="#063b8c"/>
    <path id="패스_37" data-name="패스 37" d="M-1092.643,110.613a4.278,4.278,0,0,1,1.2.159,2.684,2.684,0,0,1,.915.454,2.09,2.09,0,0,1,.584.713,2.068,2.068,0,0,1,.209.936,1.314,1.314,0,0,1-.231.836.8.8,0,0,1-.663.288,1.184,1.184,0,0,1-.526-.116,3.4,3.4,0,0,1-.439-.252c-.135-.091-.264-.175-.389-.252a.728.728,0,0,0-.389-.116.828.828,0,0,0-.519.209,2.29,2.29,0,0,0-.475.54,3.206,3.206,0,0,0-.353.742,2.523,2.523,0,0,0-.137.8,1.176,1.176,0,0,0,.194.72.638.638,0,0,0,.541.259,1.415,1.415,0,0,0,.569-.13q.295-.13.634-.289t.706-.288a2.3,2.3,0,0,1,.771-.13,1.39,1.39,0,0,1,1.081.425,1.672,1.672,0,0,1,.389,1.174,3.061,3.061,0,0,1-.317,1.347,4.217,4.217,0,0,1-.843,1.174,4.2,4.2,0,0,1-1.2.828,3.245,3.245,0,0,1-1.376.31,4.7,4.7,0,0,1-1.8-.31,2.71,2.71,0,0,1-1.217-.987,4.672,4.672,0,0,1-.685-1.751,13.393,13.393,0,0,1-.217-2.6,6.6,6.6,0,0,1,.274-1.982,4.224,4.224,0,0,1,.785-1.477,3.349,3.349,0,0,1,1.247-.922A4.19,4.19,0,0,1-1092.643,110.613Z" transform="translate(-68.48 -22.568)" fill="#fff"/>
  </g>
</svg>
