<svg xmlns="http://www.w3.org/2000/svg" width="173.907" height="118.905" viewBox="0 0 173.907 118.905">
  <g id="그룹_534" data-name="그룹 534" transform="translate(560.159 -190.247)">
    <path id="패스_818" data-name="패스 818" d="M-538.929,190.422a22.849,22.849,0,0,1,6.421.847,14.326,14.326,0,0,1,4.884,2.424,11.183,11.183,0,0,1,3.116,3.806,11.04,11.04,0,0,1,1.114,5,7,7,0,0,1-1.23,4.462,4.267,4.267,0,0,1-3.538,1.539,6.324,6.324,0,0,1-2.807-.617,17.927,17.927,0,0,1-2.344-1.346c-.719-.487-1.411-.933-2.079-1.346a3.9,3.9,0,0,0-2.074-.615,4.429,4.429,0,0,0-2.771,1.117,12.268,12.268,0,0,0-2.537,2.882,17.179,17.179,0,0,0-1.884,3.963,13.463,13.463,0,0,0-.731,4.269,6.279,6.279,0,0,0,1.037,3.845,3.4,3.4,0,0,0,2.885,1.384,7.522,7.522,0,0,0,3.039-.692q1.574-.691,3.384-1.539t3.77-1.536a12.224,12.224,0,0,1,4.115-.692,7.422,7.422,0,0,1,5.767,2.267,8.945,8.945,0,0,1,2.077,6.271,16.363,16.363,0,0,1-1.691,7.19,22.5,22.5,0,0,1-4.5,6.269A22.381,22.381,0,0,1-531.893,244a17.324,17.324,0,0,1-7.344,1.652A25.125,25.125,0,0,1-548.852,244a14.487,14.487,0,0,1-6.5-5.268,25.014,25.014,0,0,1-3.654-9.346,71.524,71.524,0,0,1-1.153-13.883,35.276,35.276,0,0,1,1.462-10.576,22.44,22.44,0,0,1,4.192-7.885,17.839,17.839,0,0,1,6.652-4.923A22.365,22.365,0,0,1-538.929,190.422Z" transform="translate(0 0.247)" fill="#063a8b"/>
    <path id="패스_819" data-name="패스 819" d="M-502.161,190.422a22.868,22.868,0,0,1,6.423.847,14.346,14.346,0,0,1,4.884,2.424,11.172,11.172,0,0,1,3.114,3.806,11.04,11.04,0,0,1,1.117,5,7.019,7.019,0,0,1-1.23,4.462,4.275,4.275,0,0,1-3.541,1.539,6.305,6.305,0,0,1-2.8-.617,17.958,17.958,0,0,1-2.347-1.346c-.719-.487-1.411-.933-2.077-1.346a3.917,3.917,0,0,0-2.077-.615,4.417,4.417,0,0,0-2.769,1.117,12.214,12.214,0,0,0-2.54,2.882,17.179,17.179,0,0,0-1.884,3.963,13.465,13.465,0,0,0-.731,4.269,6.277,6.277,0,0,0,1.04,3.845,3.4,3.4,0,0,0,2.885,1.384,7.52,7.52,0,0,0,3.037-.692q1.578-.691,3.384-1.539t3.77-1.536a12.233,12.233,0,0,1,4.115-.692,7.427,7.427,0,0,1,5.769,2.267,8.945,8.945,0,0,1,2.077,6.271,16.332,16.332,0,0,1-1.693,7.19,22.486,22.486,0,0,1-4.5,6.269A22.455,22.455,0,0,1-495.123,244a17.335,17.335,0,0,1-7.347,1.652A25.125,25.125,0,0,1-512.084,244a14.486,14.486,0,0,1-6.5-5.268,24.972,24.972,0,0,1-3.652-9.346,71.5,71.5,0,0,1-1.155-13.883,35.27,35.27,0,0,1,1.462-10.576,22.483,22.483,0,0,1,4.192-7.885,17.847,17.847,0,0,1,6.655-4.923A22.354,22.354,0,0,1-502.161,190.422Z" transform="translate(51.915 0.247)" fill="#063a8b"/>
    <path id="패스_820" data-name="패스 820" d="M-538.929,216.106a22.761,22.761,0,0,1,6.421.847,14.281,14.281,0,0,1,4.884,2.424,11.16,11.16,0,0,1,3.116,3.806,11.029,11.029,0,0,1,1.114,5,7,7,0,0,1-1.23,4.462,4.26,4.26,0,0,1-3.538,1.539,6.322,6.322,0,0,1-2.807-.615,18.493,18.493,0,0,1-2.344-1.346q-1.078-.731-2.079-1.346a3.9,3.9,0,0,0-2.074-.615,4.425,4.425,0,0,0-2.771,1.114,12.284,12.284,0,0,0-2.537,2.885,17.114,17.114,0,0,0-1.884,3.96,13.463,13.463,0,0,0-.731,4.269,6.292,6.292,0,0,0,1.037,3.847,3.4,3.4,0,0,0,2.885,1.384,7.562,7.562,0,0,0,3.039-.692q1.574-.691,3.384-1.539a40.636,40.636,0,0,1,3.77-1.539,12.284,12.284,0,0,1,4.115-.692,7.423,7.423,0,0,1,5.767,2.27,8.938,8.938,0,0,1,2.077,6.269,16.366,16.366,0,0,1-1.691,7.193,22.566,22.566,0,0,1-4.5,6.269,22.422,22.422,0,0,1-6.384,4.421,17.326,17.326,0,0,1-7.344,1.655,25.122,25.122,0,0,1-9.614-1.655,14.487,14.487,0,0,1-6.5-5.268,24.98,24.98,0,0,1-3.654-9.346,71.49,71.49,0,0,1-1.153-13.883A35.276,35.276,0,0,1-558.7,230.6a22.461,22.461,0,0,1,4.192-7.885,17.832,17.832,0,0,1,6.652-4.92A22.323,22.323,0,0,1-538.929,216.106Z" transform="translate(0 36.512)" fill="#063a8b"/>
    <path id="패스_821" data-name="패스 821" d="M-531.737,216.042a9.368,9.368,0,0,1,6.806,2.5q2.58,2.5,2.578,7.115a14.646,14.646,0,0,1-.847,5.077q-.847,2.308-1.845,4.578t-1.848,4.575a14.637,14.637,0,0,0-.847,5.075q0,1.234.154,2.962a14.266,14.266,0,0,0,.654,3.232,7.26,7.26,0,0,0,1.462,2.576,3.375,3.375,0,0,0,2.653,1.078,4.492,4.492,0,0,0,2.81-1.155,36.986,36.986,0,0,0,2.807-2.537q1.382-1.386,2.73-2.54a4.117,4.117,0,0,1,2.653-1.153,5.3,5.3,0,0,1,3.423,1.078,7.559,7.559,0,0,1,2.115,2.692,12.127,12.127,0,0,1,1.037,3.5,18.516,18.516,0,0,1,.193,3.5,9.662,9.662,0,0,1-2.46,6.307,17.937,17.937,0,0,1-5.615,4.115,28.341,28.341,0,0,1-7.038,2.27,37.7,37.7,0,0,1-6.809.692,37.343,37.343,0,0,1-4.614-.347,19.566,19.566,0,0,1-5.077-1.346,12.23,12.23,0,0,1-4.076-2.73,6.065,6.065,0,0,1-1.693-4.423,16.49,16.49,0,0,1,.618-4.344q.615-2.268,1.307-4.578t1.307-4.732a19.759,19.759,0,0,0,.615-4.882A27.351,27.351,0,0,0-539,239.04q-.423-2.153-.924-4.038t-.924-3.847a21.886,21.886,0,0,1-.422-4.575,17.619,17.619,0,0,1,.384-3.5,9.439,9.439,0,0,1,1.423-3.423,8.328,8.328,0,0,1,2.885-2.578A9.846,9.846,0,0,1-531.737,216.042Z" transform="translate(25.034 36.422)" fill="#063a8b"/>
    <path id="패스_822" data-name="패스 822" d="M-517.28,217.6a17.19,17.19,0,0,1,3.461.345,9.7,9.7,0,0,1,3,1.114,6.06,6.06,0,0,1,2.115,2.079,5.865,5.865,0,0,1,.808,3.152,12.057,12.057,0,0,1-.384,3.075q-.387,1.465-.847,2.962t-.847,3.116a14.815,14.815,0,0,0-.384,3.461v4.537a11.3,11.3,0,0,0,.461,2.923,13.02,13.02,0,0,0,1.346,3.191,10.8,10.8,0,0,0,2.077,2.578,3.86,3.86,0,0,0,2.653,1.078,3.407,3.407,0,0,0,2.463-.885,5.915,5.915,0,0,0,1.423-2.193,11,11,0,0,0,.654-2.769,25.6,25.6,0,0,0,.154-2.617,36.388,36.388,0,0,0-.309-4.73q-.308-2.344-.731-4.653t-.731-4.616a34.859,34.859,0,0,1-.306-4.614,8.966,8.966,0,0,1,.731-3.806,7.449,7.449,0,0,1,1.961-2.617,7.956,7.956,0,0,1,2.923-1.536,12.421,12.421,0,0,1,3.538-.5,13.665,13.665,0,0,1,3.268.386,9.434,9.434,0,0,1,2.846,1.191,6.2,6.2,0,0,1,2.038,2.115,6.133,6.133,0,0,1,.769,3.155,3.75,3.75,0,0,1-.424,1.691q-.423.847-.921,1.922a18.325,18.325,0,0,0-.924,2.5,12.116,12.116,0,0,0-.422,3.423,17.376,17.376,0,0,0,.538,4.231q.536,2.153,1.191,4.576t1.192,5.154a30.8,30.8,0,0,1,.54,5.96,19.783,19.783,0,0,1-1.578,7.692A21.378,21.378,0,0,1-488.4,266.4a22.2,22.2,0,0,1-6.922,4.768,21.714,21.714,0,0,1-8.96,1.807,33.967,33.967,0,0,1-9-1.114,19.761,19.761,0,0,1-6.961-3.345,15.457,15.457,0,0,1-4.5-5.579,17.585,17.585,0,0,1-1.614-7.728,20.971,20.971,0,0,1,.538-4.923q.535-2.232,1.153-4.385t1.153-4.385a20.942,20.942,0,0,0,.54-4.923,13.948,13.948,0,0,0-.386-3.23q-.384-1.614-.847-3.232t-.844-3.23a14.128,14.128,0,0,1-.386-3.307,6.018,6.018,0,0,1,.386-2.115,5.148,5.148,0,0,1,1.307-1.922,6.684,6.684,0,0,1,2.5-1.423A12.411,12.411,0,0,1-517.28,217.6Z" transform="translate(47.728 35.903)" fill="#063a8b"/>
    <path id="패스_823" data-name="패스 823" d="M-501.174,210.515a37.359,37.359,0,0,0-4.076-9.846,25.856,25.856,0,0,0-6.616-7.46,14.529,14.529,0,0,0-9-2.962,15.271,15.271,0,0,0-6.307,1.307,20.305,20.305,0,0,0-5.347,3.5,24.5,24.5,0,0,0-4.267,5.116,37.728,37.728,0,0,0-3.155,6.191,36.178,36.178,0,0,0-1.961,6.691,35.384,35.384,0,0,0-.654,6.655q0,13.77,5.113,20.19t16.191,6.423a37.463,37.463,0,0,0,10.885-1.307,12.792,12.792,0,0,0,6.536-4.346,17.693,17.693,0,0,0,3.193-7.923,72.058,72.058,0,0,0,.847-12.038A40.744,40.744,0,0,0-501.174,210.515Zm-15.475,15.658a5.693,5.693,0,0,1-5.4,1.79c-2.8-.719-3.912-4.1-4.066-4.566-2.289-6.93,5.277-15.61,5.974-15.289a.111.111,0,0,1,.055.082C-518.938,212.114-512.662,221.634-516.649,226.173Z" transform="translate(24.855 0)" fill="#063a8b"/>
    <path id="패스_824" data-name="패스 824" d="M-464.406,210.515a37.36,37.36,0,0,0-4.076-9.846,25.857,25.857,0,0,0-6.616-7.46,14.529,14.529,0,0,0-9-2.962,15.271,15.271,0,0,0-6.307,1.307,20.255,20.255,0,0,0-5.345,3.5,24.437,24.437,0,0,0-4.269,5.116,37.742,37.742,0,0,0-3.155,6.191,36.164,36.164,0,0,0-1.961,6.691,35.386,35.386,0,0,0-.654,6.655q0,13.77,5.113,20.19t16.192,6.423a37.464,37.464,0,0,0,10.885-1.307,12.791,12.791,0,0,0,6.536-4.346,17.7,17.7,0,0,0,3.193-7.923,72.056,72.056,0,0,0,.846-12.038A40.739,40.739,0,0,0-464.406,210.515Zm-16.319,15.658a5.7,5.7,0,0,1-5.4,1.79c-2.793-.719-3.91-4.1-4.064-4.566-2.289-6.93,5.277-15.61,5.974-15.289a.112.112,0,0,1,.056.082C-483.014,212.114-476.738,221.634-480.725,226.173Z" transform="translate(76.77 0)" fill="#063a8b"/>
    <path id="패스_825" data-name="패스 825" d="M-464.533,250.6a12.964,12.964,0,0,0-1.575-3.384,8.332,8.332,0,0,0-2.077-2.154q-1.154-.807-2.077-1.462a12.118,12.118,0,0,1-1.577-1.307,2.339,2.339,0,0,1-.654-1.732,6.767,6.767,0,0,1,.422-2.422,19.359,19.359,0,0,1,1.04-2.27l1.23-2.308a19.581,19.581,0,0,0,1.04-2.27,6.812,6.812,0,0,0,.422-2.422,11.319,11.319,0,0,0-1.654-6.307,12.291,12.291,0,0,0-4.575-4.115,22.016,22.016,0,0,0-6.961-2.231,55.69,55.69,0,0,0-8.886-.654q-2.3,0-4.768.193a16.316,16.316,0,0,0-4.5.96,7.7,7.7,0,0,0-3.345,2.385,7.023,7.023,0,0,0-1.31,4.539,17.319,17.319,0,0,0,.618,4.576q.611,2.268,1.346,4.614t1.346,4.694a18.682,18.682,0,0,1,.615,4.73,10.764,10.764,0,0,1-.731,4,38.427,38.427,0,0,1-1.655,3.616,38.345,38.345,0,0,0-1.655,3.613,10.786,10.786,0,0,0-.728,4,51.5,51.5,0,0,0,.5,8,9.011,9.011,0,0,0,2.154,4.846,8.816,8.816,0,0,0,4.768,2.422,42.282,42.282,0,0,0,8.345.654,90.132,90.132,0,0,0,9.691-.5,23.337,23.337,0,0,0,8.155-2.308,13.647,13.647,0,0,0,5.615-5.306q2.077-3.5,2.077-9.5A17.277,17.277,0,0,0-464.533,250.6Zm-25.391-18.423a4.731,4.731,0,0,1,3.138-2.861,4.966,4.966,0,0,1,4.137,1.09c3.039,2.808-1.819,8.765-2.716,11.213a.082.082,0,0,1-.043.051C-485.944,241.874-491.711,236.5-489.924,232.178Zm10.012,27.021a5.678,5.678,0,0,1-4.419,2.1,5.408,5.408,0,0,1-4.129-2.552c-2.918-4.484,2.429-11.732,3.073-11.616a.081.081,0,0,1,.06.048C-483.8,249.737-477.09,255.4-479.912,259.2Z" transform="translate(77.625 35.747)" fill="#063a8b"/>
  </g>
</svg>
