<svg xmlns="http://www.w3.org/2000/svg" width="256.521" height="119.043" viewBox="0 0 256.521 119.043">
  <g id="그룹_326" data-name="그룹 326" transform="translate(1176.107 -86.422)">
    <ellipse id="타원_5" data-name="타원 5" cx="128.261" cy="59.522" rx="128.261" ry="59.522" transform="translate(-1176.107 86.422)" fill="#063b8c"/>
    <path id="패스_36" data-name="패스 36" d="M-1115.964,110.613a19.91,19.91,0,0,1,5.6.738,12.517,12.517,0,0,1,4.259,2.113,9.751,9.751,0,0,1,2.715,3.32,9.616,9.616,0,0,1,.972,4.357,6.11,6.11,0,0,1-1.072,3.89,3.72,3.72,0,0,1-3.085,1.341,5.5,5.5,0,0,1-2.447-.538,15.878,15.878,0,0,1-2.046-1.173q-.94-.637-1.81-1.173a3.394,3.394,0,0,0-1.81-.538,3.849,3.849,0,0,0-2.413.972,10.679,10.679,0,0,0-2.213,2.515,14.953,14.953,0,0,0-1.643,3.452,11.744,11.744,0,0,0-.636,3.722,5.468,5.468,0,0,0,.905,3.352,2.963,2.963,0,0,0,2.513,1.207,6.572,6.572,0,0,0,2.649-.6q1.375-.6,2.951-1.342t3.285-1.34a10.69,10.69,0,0,1,3.587-.6,6.471,6.471,0,0,1,5.029,1.978,7.789,7.789,0,0,1,1.811,5.465A14.248,14.248,0,0,1-1100.34,148a19.641,19.641,0,0,1-3.923,5.465,19.505,19.505,0,0,1-5.565,3.855,15.1,15.1,0,0,1-6.4,1.443,21.873,21.873,0,0,1-8.38-1.443,12.623,12.623,0,0,1-5.667-4.591,21.817,21.817,0,0,1-3.185-8.147,62.421,62.421,0,0,1-1.005-12.1,30.762,30.762,0,0,1,1.274-9.22,19.587,19.587,0,0,1,3.655-6.874,15.565,15.565,0,0,1,5.8-4.291A19.487,19.487,0,0,1-1115.964,110.613Z" transform="translate(16.728 9.497)" fill="#fff"/>
    <path id="패스_37" data-name="패스 37" d="M-1078.114,110.613a19.914,19.914,0,0,1,5.6.738,12.5,12.5,0,0,1,4.257,2.113,9.736,9.736,0,0,1,2.717,3.32,9.632,9.632,0,0,1,.972,4.357,6.111,6.111,0,0,1-1.074,3.89,3.719,3.719,0,0,1-3.085,1.341,5.511,5.511,0,0,1-2.447-.538,15.928,15.928,0,0,1-2.046-1.173q-.938-.637-1.81-1.173a3.39,3.39,0,0,0-1.809-.538,3.856,3.856,0,0,0-2.415.972,10.711,10.711,0,0,0-2.213,2.515,14.983,14.983,0,0,0-1.643,3.452,11.742,11.742,0,0,0-.637,3.722,5.477,5.477,0,0,0,.905,3.352,2.965,2.965,0,0,0,2.515,1.207,6.584,6.584,0,0,0,2.649-.6q1.372-.6,2.949-1.342t3.285-1.34a10.7,10.7,0,0,1,3.588-.6,6.471,6.471,0,0,1,5.028,1.978,7.79,7.79,0,0,1,1.81,5.465,14.245,14.245,0,0,1-1.475,6.269,19.6,19.6,0,0,1-3.923,5.465,19.5,19.5,0,0,1-5.565,3.855,15.09,15.09,0,0,1-6.4,1.443,21.884,21.884,0,0,1-8.382-1.443,12.613,12.613,0,0,1-5.665-4.591,21.766,21.766,0,0,1-3.185-8.147,62.3,62.3,0,0,1-1.007-12.1,30.742,30.742,0,0,1,1.274-9.22,19.63,19.63,0,0,1,3.654-6.874,15.577,15.577,0,0,1,5.8-4.291A19.5,19.5,0,0,1-1078.114,110.613Z" transform="translate(31.934 9.497)" fill="#fff"/>
    <path id="패스_38" data-name="패스 38" d="M-1041.638,110.613a19.91,19.91,0,0,1,5.6.738,12.514,12.514,0,0,1,4.258,2.113,9.746,9.746,0,0,1,2.715,3.32,9.615,9.615,0,0,1,.972,4.357,6.11,6.11,0,0,1-1.072,3.89,3.72,3.72,0,0,1-3.085,1.341,5.5,5.5,0,0,1-2.447-.538,15.9,15.9,0,0,1-2.046-1.173q-.94-.637-1.81-1.173a3.393,3.393,0,0,0-1.81-.538,3.85,3.85,0,0,0-2.413.972,10.686,10.686,0,0,0-2.213,2.515,14.933,14.933,0,0,0-1.643,3.452,11.748,11.748,0,0,0-.636,3.722,5.469,5.469,0,0,0,.905,3.352,2.963,2.963,0,0,0,2.514,1.207,6.573,6.573,0,0,0,2.649-.6q1.375-.6,2.951-1.342t3.285-1.34a10.689,10.689,0,0,1,3.587-.6,6.473,6.473,0,0,1,5.029,1.978,7.79,7.79,0,0,1,1.81,5.465,14.248,14.248,0,0,1-1.475,6.269,19.634,19.634,0,0,1-3.923,5.465,19.5,19.5,0,0,1-5.565,3.855,15.094,15.094,0,0,1-6.4,1.443,21.874,21.874,0,0,1-8.38-1.443,12.625,12.625,0,0,1-5.667-4.591,21.817,21.817,0,0,1-3.185-8.147,62.44,62.44,0,0,1-1.005-12.1,30.75,30.75,0,0,1,1.274-9.22,19.584,19.584,0,0,1,3.654-6.874,15.564,15.564,0,0,1,5.8-4.291A19.488,19.488,0,0,1-1041.638,110.613Z" transform="translate(46.588 9.497)" fill="#fff"/>
  </g>
</svg>
